<svg id="SvgjsSvg1001" width="288" height="288" xmlns="http://www.w3.org/2000/svg" version="1.1" xmlns:xlink="http://www.w3.org/1999/xlink" xmlns:svgjs="http://svgjs.com/svgjs"><rect id="SvgjsRect1015" width="288" height="288" rx="20" ry="20" fill="#dfe1f5" transform="matrix(0.7916,0,0,0.7916,30.009600000000006,30.009600000000006)"></rect><defs id="SvgjsDefs1002"></defs><g id="SvgjsG1008" transform="matrix(0.4652,0,0,0.4652,77.01126120300293,77.01112655639649)"><svg xmlns="http://www.w3.org/2000/svg" width="288" height="288" viewBox="0 0 313.627 336.017"><path fill="#6666ff" d="m 156.802,207.201 c 0,9.2773 -7.5234,16.801 -16.801,16.801 -9.2773,0 -16.801,-7.5234 -16.801,-16.801 0,-9.2773 7.5234,-16.801 16.801,-16.801 9.2773,0 16.801,7.5234 16.801,16.801" class="colorgray svgShape"></path><path fill="#ff6699" d="M56.002 22.401c0 9.281203-7.5195 16.801003-16.801 16.801003-9.2773 0-16.797-7.5195-16.797-16.801003 0-9.2773 7.5195-16.797 16.797-16.797 9.2812 0 16.801 7.5195 16.801 16.797M33.602 112.001c0 9.2773-7.5234 16.801-16.801 16.801C7.5234 128.802 0 121.2786 0 112.001 0 102.7234 7.5234 95.200003 16.801 95.200003c9.2776 0 16.801 7.523397 16.801 16.800997" class="colorred svgShape"></path><path fill="#6666ff" d="m 235.202,184.801 c 0,9.2773 -7.5195,16.801 -16.797,16.801 -9.2812,0 -16.801,-7.5234 -16.801,-16.801 0,-9.2773 7.5195,-16.801 16.801,-16.801 9.2773,0 16.797,7.5234 16.797,16.801" class="colorgray svgShape"></path><path fill="#ff6699" d="m 145.602,16.801 c 0,9.2773 -7.5234,16.801003 -16.801,16.801003 C 119.5234,33.602003 112,26.0786 112,16.801 112,7.5237 119.5234,0 128.801,0 c 9.2776,0 16.801,7.5234 16.801,16.801" class="colorred svgShape"></path><path fill="#6666ff" d="m 199.592,38.251003 c -4.0508,-1.0195 -8.3398,-0.5 -12.027,1.4688 -3.6836,1.9688 -6.5039,5.2383 -7.9102,9.1719 -6.0273,16.75 -17.055,31.25 -31.586,41.535 -14.531,10.284997 -31.867,15.858997 -49.668,15.976997 l -0.83984,0 c -3.7461,0 -7.3828,1.2539 -10.336,3.5547 -2.9531,2.3047 -5.0508,5.5273 -5.9609,9.1602 -7.3789,29.109 -29.211,52.379 -57.793,61.598 -3.6367,1.1562 -6.7734,3.5156 -8.8906,6.6914 -2.1172,3.1758 -3.0898,6.9805 -2.7578,10.781 3.2891,37.023 20.098,71.535 47.215,96.949 27.117,25.418 62.648,39.953 99.805,40.836 37.157,0.883 73.336,-11.953 101.63,-36.055 28.293,-24.098 46.719,-57.777 51.758,-94.602 5.0391,-36.824 -3.6602,-74.211 -24.438,-105.03 -20.777,-30.819997 -52.176,-52.901997 -88.203,-62.038997 z M 162.408,302.401 c -27.191,-0.16016 -53.496,-9.668 -74.504,-26.934 -21.008,-17.262 -35.434,-41.23 -40.859,-67.871 29.25,-13.473 51.949,-38.008 63.113,-68.211 40.328,-4.2109 75.855,-28.379 94.586,-64.343997 34.461,13.258 60.699,41.933997 70.848,77.433997 10.152,35.504 3.0352,73.715 -19.211,103.18 -22.25,29.473 -57.047,46.781 -93.973,46.742 z" class="colorgray svgShape"></path></svg></g></svg>